<svg xmlns="http://www.w3.org/2000/svg" width="23" height="19" viewBox="0 0 23 19" fill="none">
  <path
    d="M17.2368 8.08014V5.07123C17.2463 3.70977 16.6014 2.40068 15.45 1.44605C14.3369 0.511554 12.8798 0 11.3367 0C11.3128 0 11.2842 0 11.2603 0C7.96867 0.00402798 5.29334 2.27581 5.29334 5.07123V8.08014C4.05123 8.205 3.14352 9.0831 3.14352 10.1465V16.9054C3.14352 18.0534 4.23277 19 5.59432 19H16.9406C18.3021 19 19.3914 18.0534 19.3914 16.9054V10.1465C19.3866 9.08713 18.4789 8.205 17.2368 8.08014ZM6.24404 5.07123H6.24882C6.24882 2.71889 8.49896 0.793513 11.2651 0.793513H11.2698C12.5836 0.789485 13.8448 1.22854 14.7764 2.00996C15.7462 2.81959 16.2861 3.92326 16.2765 5.07123V8.08416H15.2255V5.07123C15.2351 4.15688 14.8051 3.27878 14.0359 2.6343C13.3098 2.02205 12.3256 1.67564 11.2985 1.67564H11.2698C9.07225 1.67564 7.29506 3.19822 7.29506 5.0672V8.08416H6.24404V5.07123ZM14.2748 5.07123V8.08416H8.25532V5.07123C8.25532 3.64533 9.60254 2.48527 11.2746 2.48527H11.3033C12.0772 2.48527 12.8225 2.74708 13.3719 3.2103C13.9547 3.70172 14.2844 4.37439 14.2748 5.07123ZM18.4789 16.9175C18.4789 17.6224 17.8005 18.1944 16.9645 18.1944H5.61343C4.77739 18.1944 4.099 17.6224 4.099 16.9175V10.1666C4.099 9.46173 4.77739 8.88976 5.61343 8.88976H16.9645C17.8005 8.88976 18.4789 9.46173 18.4789 10.1666V16.9175Z"
    fill="#000842"
  />
  <path
    d="M12.9181 13.2924C12.7079 12.668 12.0343 12.2411 11.2651 12.2411C10.3144 12.2411 9.54047 12.8896 9.54047 13.6952C9.54047 14.3437 10.0469 14.9116 10.7874 15.0888V16.2167C10.7874 16.4382 11.0023 16.6195 11.2651 16.6195C11.5279 16.6195 11.7428 16.4382 11.7428 16.2167V15.0888C12.6553 14.8673 13.1856 14.0617 12.9181 13.2924ZM11.2651 14.3396C10.8399 14.3396 10.4959 14.0496 10.4959 13.6911C10.4959 13.3326 10.8399 13.0426 11.2651 13.0426C11.6903 13.0426 12.0343 13.3326 12.0343 13.6911C12.0343 14.0496 11.6903 14.3396 11.2651 14.3396Z"
    fill="#000842"
  />
</svg>
