<svg xmlns="http://www.w3.org/2000/svg" width="21" height="17" viewBox="0 0 21 17" fill="none">
  <path
    d="M1.77277 2.6765H18.3974C19.3749 2.6765 20.1702 3.34677 20.1702 4.17064V12.8294C20.1702 13.6533 19.3749 14.3236 18.3974 14.3236H1.77277C0.795266 14.3236 1.90735e-06 13.6533 1.90735e-06 12.8294V4.17064C1.90735e-06 3.34677 0.795266 2.6765 1.77277 2.6765ZM2.00414 3.67259L2.24074 3.83864L9.38173 8.85035C9.78931 9.13637 10.3809 9.13637 10.7884 8.85035L17.9294 3.83864L18.166 3.67259H2.00414ZM18.9883 4.39171L13.17 8.47513L18.9883 11.7388V4.39171ZM1.77277 13.3275H18.3974C18.6829 13.3275 18.9217 13.1559 18.9765 12.9287L12.2224 9.14015L11.5447 9.61582C11.1218 9.91259 10.6034 10.061 10.085 10.061C9.56669 10.061 9.04833 9.91259 8.62543 9.61582L7.94768 9.14015L1.19367 12.9286C1.24842 13.1559 1.48724 13.3275 1.77277 13.3275ZM1.18185 11.7388L7.00015 8.47516L1.18185 4.39171V11.7388Z"
    fill="#000842"
  />
</svg>
